{"title":"Formula.1.2015x05.Spain.Race.SkyF1HD.720p50","uid":11900163,"size":12464216358,"categoryP":"video","categoryS":"hd___tv_shows","magnet":"?xt=urn:btih:f2a4512f0a69f2454b9249f6273998b03d292713&amp;dn=Formula.1.2015x05.Spain.Race.SkyF1HD.720p50&amp;tr=udp%3A%2F%2Ftracker.openbittorrent.com%3A80&amp;tr=udp%3A%2F%2Fopen.demonii.com%3A1337&amp;tr=udp%3A%2F%2Ftracker.coppersurfer.tk%3A6969&amp;tr=udp%3A%2F%2Fexodus.desync.com%3A6969","seeders":24,"leechers":11,"uploader":"z97","files":3,"time":1431287675,"description":"Coverage of the 2015 Spanish Grand Prix at Circuit de Barcelona-Catalunya.\n\nVideo\nID : 1\nFormat : AVC\nFormat/Info : Advanced Video Codec\nFormat profile : High@L4\nFormat settings, CABAC : Yes\nFormat settings, ReFrames : 4 frames\nCodec ID : avc1\nCodec ID/Info : Advanced Video Coding\nDuration : 1h 10mn\nBit rate : 3 861 Kbps\nWidth : 1 280 pixels\nHeight : 720 pixels\nDisplay aspect ratio : 16:9\nFrame rate mode : Constant\nFrame rate : 50.000 fps\nColor space : YUV\nChroma subsampling : 4:2:0\nBit depth : 8 bits\nScan type : Progressive\nBits/(Pixel*Frame) : 0.084\nStream size : 1.90 GiB (86%)\nWriting library : x264 core 142 r2479 dd79a61\nEncoding settings : cabac=1 / ref=2 / deblock=1:0:0 / analyse=0x3:0x113 / me=hex / subme=6 / psy=1 / psy_rd=1.00:0.00 / mixed_ref=1 / me_range=16 / chroma_me=1 / trellis=1 / 8x8dct=1 / cqm=0 / deadzone=21,11 / fast_pskip=1 / chroma_qp_offset=-2 / threads=24 / lookahead_threads=4 / sliced_threads=0 / nr=0 / decimate=1 / interlaced=0 / bluray_compat=0 / constrained_intra=0 / bframes=3 / b_pyramid=2 / b_adapt=1 / b_bias=0 / direct=1 / weightb=1 / open_gop=0 / weightp=1 / keyint=500 / keyint_min=50 / scenecut=40 / intra_refresh=0 / rc_lookahead=30 / rc=crf / mbtree=1 / crf=20.0 / qcomp=0.60 / qpmin=0 / qpmax=69 / qpstep=4 / vbv_maxrate=25000 / vbv_bufsize=31250 / crf_max=0.0 / nal_hrd=none / filler=0 / ip_ratio=1.40 / aq=1:1.00\nColor range : Limited\nColor primaries : BT.709\nTransfer characteristics : BT.709\nMatrix coefficients : BT.709\n\nAudio #1\nID : 2\nFormat : AAC\nFormat/Info : Advanced Audio Codec\nFormat profile : LC\nCodec ID : 40\nDuration : 1h 10mn\nBit rate mode : Variable\nBit rate : 320 Kbps\nChannel(s) : 2 channels\nChannel(s)_Original : 6 channels\nChannel positions : Front: L C R, Side: L R, LFE\nSampling rate : 48.0 KHz\nCompression mode : Lossy\nStream size : 161 MiB (7%)\nTitle : AAC / AAC\n\nAudio #2\nID : 3\nFormat : AC-3\nFormat/Info : Audio Coding 3\nMode extension : CM (complete main)\nFormat settings, Endianness : Big\nCodec ID : ac-3\nDuration : 1h 10mn\nBit rate mode : Constant\nBit rate : 320 Kbps\nChannel(s) : 6 channels\nChannel positions : Front: L C R, Side: L R, LFE\nSampling rate : 48.0 KHz\nBit depth : 16 bits\nCompression mode : Lossy\nStream size : 162 MiB (7%)\nTitle : AC3 / AC3","torrent":{"xt":"urn:btih:f2a4512f0a69f2454b9249f6273998b03d292713","amp;dn":"Formula.1.2015x05.Spain.Race.SkyF1HD.720p50","amp;tr":["udp%3A%2F%2Ftracker.openbittorrent.com%3A80","udp%3A%2F%2Fopen.demonii.com%3A1337","udp%3A%2F%2Ftracker.coppersurfer.tk%3A6969","udp%3A%2F%2Fexodus.desync.com%3A6969"],"infoHash":"f2a4512f0a69f2454b9249f6273998b03d292713","infoHashBuffer":{"type":"Buffer","data":[242,164,81,47,10,105,242,69,75,146,73,246,39,57,152,176,61,41,39,19]},"announce":[],"urlList":[]}}